# xmcd
#
# Track frame offsets: 
#        150
#        20980
#        36437
#        61962
#        92150
#        111632
#        131875
#        154595
#        172280
#        189045
#        207217
#        228752
#        255935
#
# Disc length: 3814 seconds
#
# Revision: 4
# Processed by: cddbd v1.5.2PL0 Copyright (c) Steve Scherf et al.
# Submitted via: ExactAudioCopyFreeDBPlugin 1.0
#
DISCID=b50ee40d
DTITLE=John Lee Hooker - The Best Of Friends
DYEAR=1998
DGENRE=Blues
TTITLE0=Boogie Chillen (feat. Eric Clapton)
TTITLE1=This Is Hip (feat. Ry Cooder)
TTITLE2=The Healer (feat. Carlos Santana)
TTITLE3=I Cover The Waterfront (feat. Van Morrison and Booker T. Jones)
TTITLE4=Boom Boom (feat. Jimmie Vaughan)
TTITLE5=I'm In The Mood (feat. Bonnie Raitt)
TTITLE6=Burnin' Hell (feat. Ben Harper and Charli Musselwhite)
TTITLE7=Tupelo
TTITLE8=Baby Lee (feat. Robert Cray)
TTITLE9=Dimples (feat. Los Lobos)
TTITLE10=Chill Out (Things Gonna Change, feat. Carlos Santana)
TTITLE11=Big Legs Tight Skirt (feat. Ry Cooder and Ike Turner)
TTITLE12=Don't Look Back (feat. Van Morrison and Charles Brown)
EXTD=YEAR: 1998
EXTT0=
EXTT1=
EXTT2=
EXTT3=
EXTT4=
EXTT5=
EXTT6=
EXTT7=
EXTT8=
EXTT9=
EXTT10=
EXTT11=
EXTT12=
PLAYORDER=
